PathFileType	4	(X/Y/Z)	SUBJ62_2_walk_RCNL2025.trc
DataRate	CameraRate	NumFrames	NumMarkers	Units	OrigDataRate	OrigDataStartFrame	OrigNumFrames
100	100	10	25	mm	100	192	306
Frame#	Time	R_Shoulder			L_Shoulder			C7			J_Notch			R_Elbow			L_Elbow			R_Wrist			L_Wrist			R_Asis			L_Asis			Sacral			Thoracic			Sternum			R_Thigh_Lateral			R_Knee_Lateral			R_Shank_Lateral			R_Ankle_Lateral			R_Heel			R_Toe			L_Thigh_Lateral			L_Knee_Lateral			L_Shank_Lateral			L_Ankle_Lateral			L_Heel			L_Toe		
		X1	Y1	Z1	X2	Y2	Z2	X3	Y3	Z3	X4	Y4	Z4	X5	Y5	Z5	X6	Y6	Z6	X7	Y7	Z7	X8	Y8	Z8	X9	Y9	Z9	X10	Y10	Z10	X11	Y11	Z11	X12	Y12	Z12	X13	Y13	Z13	X14	Y14	Z14	X15	Y15	Z15	X16	Y16	Z16	X17	Y17	Z17	X18	Y18	Z18	X19	Y19	Z19	X20	Y20	Z20	X21	Y21	Z21	X22	Y22	Z22	X23	Y23	Z23	X24	Y24	Z24	X25	Y25	Z25
192	1.91000000	910.841370	1275.079956	-30.415428	879.935181	1283.882812	-368.301392	822.275269	1346.100098	-196.493317	953.197083	1260.221436	-205.358444	887.311157	978.344360	43.591003	837.145447	981.931641	-427.242950	991.774933	783.014191	24.037990	887.736023	767.934967	-423.713608	949.419800	860.518127	-58.350674	967.112976	872.994202	-318.609253	784.572693	862.732239	-202.562073	762.286377	1149.022949	-196.279037	977.027832	1060.727051	-201.175568	921.726501	470.598297	12.057384	934.734131	412.825378	-55.692108	813.271790	302.379181	-12.967854	655.953735	191.758606	-77.099945	615.538818	221.659973	-121.345772	694.921326	91.270180	-88.826683	958.099182	472.091400	-362.059937	953.481812	409.094177	-309.399963	967.477600	213.366928	-333.147552	945.040405	49.123192	-263.839264	883.517151	48.610683	-223.320374	1051.596680	34.270653	-246.703171
193	1.92000000	920.994690	1275.820801	-30.867186	891.278870	1285.270630	-368.908020	833.236084	1347.306274	-197.331924	963.994019	1261.118286	-205.935471	893.371155	979.079590	41.904068	854.459167	983.121338	-430.058441	992.444763	780.901184	24.751782	910.563599	770.464264	-426.390671	959.725281	862.437073	-59.747688	976.740295	873.643433	-319.754150	794.552917	863.946289	-203.414276	772.829407	1150.329834	-197.580719	987.292908	1061.627930	-202.052582	938.082092	472.490784	9.719735	955.954712	415.854370	-57.027077	836.941101	304.456329	-14.188074	680.768311	190.568268	-78.324364	639.423523	218.960175	-122.467827	724.060791	92.478340	-89.438591	960.910767	471.710388	-362.479340	956.028503	408.967316	-309.690735	968.385254	213.097229	-333.367065	945.142029	49.123062	-263.758209	883.704407	48.977230	-223.299240	1051.645752	34.203697	-246.601639
194	1.93000000	931.047668	1276.504883	-31.302031	902.499939	1286.648071	-369.496460	844.099182	1348.405762	-198.141998	974.715271	1261.947632	-206.506241	899.274109	979.819763	40.289402	871.753113	984.414612	-432.794312	993.062042	779.083313	25.449218	933.537384	773.305237	-428.917053	970.072205	864.320984	-61.159618	986.254944	874.229248	-320.897034	804.485046	865.082886	-204.118042	783.319153	1151.522461	-198.853638	997.505310	1062.460815	-202.941681	954.783203	474.500183	7.483629	976.918640	419.010498	-58.412731	860.740234	305.854797	-15.502459	706.295776	188.208588	-79.703857	663.939148	214.882645	-123.780701	754.245972	92.874886	-90.158379	963.658264	471.421356	-362.783142	958.446655	408.852539	-309.915161	969.120178	212.876083	-333.581970	945.257019	49.134193	-263.660919	883.918030	49.358784	-223.258942	1051.714111	34.140373	-246.511749
195	1.94000000	941.026306	1277.115601	-31.732891	913.608643	1287.982300	-370.069244	854.872009	1349.378540	-198.927490	985.369019	1262.692017	-207.081146	905.027344	980.548279	38.753391	888.987976	985.779358	-435.445770	993.678467	777.548035	26.104836	956.606140	776.440704	-431.273560	980.497131	866.114380	-62.563461	995.677246	874.705078	-322.062164	814.381470	866.104858	-204.662750	793.763550	1152.580811	-200.094406	1007.679932	1063.207031	-203.842606	972.019409	476.606049	5.479841	997.574158	422.197144	-59.831791	884.588379	306.522552	-16.899843	732.577881	184.747406	-81.199379	689.083557	209.490814	-125.269058	785.313599	92.487694	-90.919113	966.390930	471.228058	-363.003693	960.762939	408.754150	-310.101990	969.710999	212.693176	-333.797638	945.380615	49.156116	-263.554382	884.147278	49.733997	-223.181641	1051.799072	34.085571	-246.438721
196	1.95000000	950.959351	1277.633179	-32.168026	924.617371	1289.237183	-370.627777	865.564453	1350.207153	-199.690338	995.963562	1263.331665	-207.667252	910.650146	981.252808	37.302933	906.127441	987.178772	-438.007690	994.335236	776.267609	26.697767	979.720703	779.847137	-433.444351	991.049866	867.776062	-63.924980	1005.027649	875.026917	-323.266937	824.252197	866.981018	-205.045593	804.170715	1153.486816	-201.295624	1017.828796	1063.846313	-204.752792	989.855042	478.790253	3.792857	1017.877991	425.330414	-61.265888	908.444397	306.453735	-18.362022	759.667419	180.272598	-82.760651	714.867310	202.851410	-126.886200	817.151367	91.368942	-91.680893	969.134094	471.121613	-363.174286	963.005493	408.678009	-310.275940	970.207703	212.540527	-334.011139	945.509216	49.187328	-263.444824	884.384338	50.094734	-223.066208	1051.898804	34.042343	-246.383881
197	1.96000000	960.876160	1278.036133	-32.610931	935.538757	1290.376709	-371.173370	876.188538	1350.877075	-200.430176	1006.508240	1263.846680	-208.268707	916.175476	981.931396	35.950302	923.139954	988.574280	-440.471954	995.058228	775.199646	27.215357	1002.834167	783.498077	-435.418320	1001.780457	869.277283	-65.207306	1014.325195	875.160034	-324.519165	834.106384	867.687500	-205.272232	814.549438	1154.225952	-202.446167	1027.962158	1064.357056	-205.668808	1008.250366	481.029816	2.453444	1037.793213	428.343048	-62.697208	932.281799	305.685272	-19.866056	787.601074	174.874283	-84.331711	741.329834	195.013657	-128.556366	849.690308	89.589890	-92.433006	971.892212	471.084229	-363.324982	965.202271	408.627960	-310.453003	970.671692	212.412262	-334.214844	945.642212	49.226456	-263.336609	884.625122	50.442394	-222.922836	1052.012695	34.011364	-246.343765
198	1.97000000	970.804749	1278.302246	-33.061260	946.383911	1291.367798	-371.706726	886.758545	1351.376953	-201.144440	1017.013550	1264.218994	-208.886047	921.640686	982.596375	34.714935	939.999695	989.928894	-442.826569	995.867859	774.294952	27.651227	1025.902252	787.366455	-437.188278	1012.708252	870.593018	-66.385956	1023.586304	875.082581	-325.814331	843.953003	868.208435	-205.355209	824.909302	1154.787231	-203.532349	1038.090576	1064.717896	-206.586441	1027.083984	483.295898	1.441110	1057.283813	431.186096	-64.111198	956.068542	304.295502	-21.387014	816.370422	168.629196	-85.861603	768.540222	186.029129	-130.195160	882.887817	87.235100	-93.187424	974.657532	471.093384	-363.479706	967.377014	408.601166	-310.637604	971.161987	212.302979	-334.401337	945.782227	49.272694	-263.232208	884.868164	50.783760	-222.766830	1052.140137	33.991173	-246.312454
199	1.98000000	980.770935	1278.410278	-33.515549	957.161255	1292.181519	-372.226990	897.290100	1351.698364	-201.829651	1027.490112	1264.432861	-209.516647	927.058411	983.265076	33.613831	956.687805	991.209473	-445.058197	996.789917	773.506592	28.001112	1048.883301	791.425323	-438.749619	1023.803650	871.695374	-67.457047	1032.823730	874.786377	-327.133636	853.800842	868.535767	-205.311508	835.259216	1155.162720	-204.539856	1048.224731	1064.909180	-207.501007	1046.176147	485.556366	0.696934	1076.310425	433.826233	-65.498924	979.782776	302.379639	-22.899361	845.923340	161.605103	-87.316223	796.579712	176.000412	-131.735977	916.713318	84.400963	-93.969917	977.422913	471.126068	-363.653961	969.548279	408.589081	-310.824493	971.723389	212.207047	-334.566681	945.932373	49.324951	-263.133026	885.113098	51.127144	-222.613739	1052.277954	33.977558	-246.284790
200	1.99000000	990.796448	1278.344116	-33.967716	967.877625	1292.794312	-372.732147	907.799377	1351.835449	-202.483170	1037.946777	1264.473999	-210.155579	932.405457	983.940430	32.647552	973.194092	992.387573	-447.156921	997.853607	772.792847	28.262376	1071.736877	795.648285	-440.098267	1035.006104	872.558167	-68.429962	1042.046021	874.275757	-328.445740	863.657715	868.667236	-205.160034	845.606262	1155.347656	-205.455826	1058.373657	1064.915894	-208.408447	1065.314331	487.776672	0.143203	1094.826904	436.238281	-66.856834	1003.433044	300.022186	-24.377134	876.197510	153.886871	-88.683853	825.522461	165.101837	-133.141769	951.139832	81.200485	-94.809433	980.195190	471.161774	-363.853455	971.734253	408.583832	-311.005737	972.381042	212.119476	-334.711426	946.093750	49.381176	-263.039642	885.359009	51.480267	-222.475616	1052.417358	33.962013	-246.258575
201	2.00000000	1000.896057	1278.094971	-34.410137	978.539612	1293.188232	-373.219666	918.300781	1351.784424	-203.102875	1048.390991	1264.330200	-210.795990	937.669434	984.599060	31.801792	989.516174	993.440247	-449.118561	999.087219	772.118683	28.436349	1094.422424	800.009277	-441.229706	1046.253052	873.165344	-69.315994	1051.258423	873.563904	-329.714966	873.531799	868.602295	-204.919968	855.955322	1155.340088	-206.270721	1068.542358	1064.728882	-209.305115	1084.273315	489.914978	-0.299162	1112.778442	438.397980	-68.184128	1027.040894	297.298553	-25.797655	907.148621	145.599716	-89.973236	855.426514	153.558426	-134.404160	986.137268	77.768753	-95.728905	983.002380	471.183594	-364.075958	973.958130	408.582031	-311.176636	973.140930	212.037140	-334.839661	946.265747	49.439110	-262.951141	885.603882	51.850796	-222.358093	1052.544556	33.933647	-246.235504
